<svg xmlns="http://www.w3.org/2000/svg"><symbol id="space-bubbles" viewBox="0 0 190 220"><path d="M68.7 128.5H56.8L41 147.3l2.5 3.6 30.4-16.1-5.2-6.3zm-21.9-12.9h98.5v9.36H46.8z"/><path d="M95 .2L.1 55v109.6L95 219.4l94.9-54.8V55zm57.6 148.1l-4.1 5.9a1.9 1.9 0 0 1-2.3.5l-8.6-4.5H52.3l-8.6 4.5a2 2 0 0 1-2.3-.5l-4.1-5.9a1.9 1.9 0 0 1 .2-2.2l14.9-17.6H45a1.7 1.7 0 0 1-1.8-1.8v-13A1.7 1.7 0 0 1 45 112h10.4a50.3 50.3 0 0 1-2-13.7 42.6 42.6 0 0 1 85.1 0 44.2 44.2 0 0 1-2 13.7H147a1.7 1.7 0 0 1 1.8 1.8v13a1.7 1.7 0 0 1-1.8 1.8h-9.2l14.8 17.6a1.9 1.9 0 0 1 0 2.1z"/><path d="M59.4 146.7h24.4l-7.3-9-17.1 9zm73.4-34.7a43.5 43.5 0 0 0 2.2-13.7 39 39 0 0 0-77.9 0c0 4.7.4 9.5 2.2 13.7zm-59.4 16.5l15.1 18.2h13l15.1-18.2H73.4zm47.9 0l-5.4 6.3 30.6 16.1 2.5-3.5-15.8-18.9h-11.9zm-15.1 18.2h24.4l-17.1-9-7.3 9z"/></symbol><symbol id="mecha-stilts" viewBox="0 0 190 220"><path d="M67.6 135.4h18v11.34h-18zM95 60.3c-21.1 0-38.7 12.8-39.6 36h79.2c-.9-23.2-18.5-36-39.6-36zm9.4 75.1h18v11.34h-18zm-51.9 0H64v11.34H52.5zm36.7 0h11.5v11.34H89.2z"/><path d="M95 .2L.1 55v109.6L95 219.4l94.9-54.8V55zm56.9 133.4a1.7 1.7 0 0 1-1.8 1.8h-9v11.3h9a1.8 1.8 0 1 1 0 3.6H39.9a1.8 1.8 0 0 1 0-3.6h9v-11.3h-9a1.7 1.7 0 0 1-1.8-1.8V98.1a1.7 1.7 0 0 1 1.8-1.8h11.9c.9-25.6 20-39.6 43.2-39.6s42.3 14 43.2 39.6h11.9a1.7 1.7 0 0 1 1.8 1.8z"/><path d="M126 135.4h11.5v11.34H126zm-84.3-3.6h106.6V99.9H41.7zm52.4-12.2H138a1.8 1.8 0 0 1 0 3.6H94.1a1.8 1.8 0 1 1 0-3.6z"/><path fill="#fff" d="M94.1 123.1H138a1.8 1.8 0 0 0 0-3.6H94.1a1.8 1.8 0 1 0 0 3.6z"/></symbol><symbol id="space-domes" viewBox="0 0 190 220"><path d="M93.2 109.8V73.5l-25.9 36.3h25.9zm-1.8-39.9c-23 1.4-42.3 18.2-47.9 40h19.3zm-46.6 57h48.4v19.98H44.8zm52-57.2v40.1h49.7a53.5 53.5 0 0 0-49.7-40.1zm11.7 57.2h36.7v19.98h-36.7zm-11.7 0h8.1v19.98h-8.1z"/><path d="M95 .4L.1 55.2v109.6L95 219.6l94.9-54.8V55.2zm77.6 126.5h-23.8v21.8a1.7 1.7 0 0 1-1.8 1.8H43a1.7 1.7 0 0 1-1.8-1.8v-21.8H17.4a1.8 1.8 0 0 1 0-3.6h13.5v-11.7a1.7 1.7 0 0 1 1.8-1.8h7a57.1 57.1 0 0 1 55.1-43.7c.2-.2.4-.2.7 0a56.9 56.9 0 0 1 54.7 43.7h7a1.7 1.7 0 0 1 1.8 1.8v11.7h13.5a1.8 1.8 0 1 1 0 3.6z"/><path d="M34.5 113.4h121v9.9h-121z"/></symbol></svg>